<?xml version="1.0" standalone="no"?>
<!DOCTYPE svg PUBLIC "-//W3C//DTD SVG 20010904//EN"
 "http://www.w3.org/TR/2001/REC-SVG-20010904/DTD/svg10.dtd">
<svg version="1.0" xmlns="http://www.w3.org/2000/svg"
 width="1400.000000pt" height="1400.000000pt" viewBox="0 0 1400.000000 1400.000000"
 preserveAspectRatio="xMidYMid meet">
<metadata>
Created by potrace 1.11, written by Peter Selinger 2001-2013
</metadata>
<g transform="translate(0.000000,1400.000000) scale(0.100000,-0.100000)"
fill="#000000" stroke="none">
<path d="M3784 10348 l-1114 -1111 0 -3349 0 -3348 2045 0 2045 0 0 585 0 585
560 0 560 0 0 -585 0 -585 1725 0 1725 0 0 1940 0 1940 -585 0 -585 0 0 555 0
555 585 0 585 0 0 1965 0 1965 -1725 0 -1725 0 0 -585 0 -585 -560 0 -560 0 0
585 0 585 -931 0 -930 0 -1115 -1112z"/>
</g>
</svg>
